# xmcd
#
# Track frame offsets:
#	150
#	10099
#	25109
#	36775
#	50197
#	62778
#	74108
#	90760
#	109918
#	125988
#	136293
#	148281
#	161418
#	176153
#	191160
#
# Disc length: 2707
#
# Revision: 2
# Processed by: cddbd v1.5.1PL0 Copyright (c) Steve Scherf et al.
# Submitted via: audiograbber 1.80
# Normalized: r1:DSETVAR1
#
DISCID=e30a910f
DTITLE=Various Artist - Country Highlights CD2
DYEAR=1900
DGENRE=
TTITLE0=Dolly Parton - Release Me
TTITLE1=Jennie C. Riley - Harpers Valley
TTITLE2=Parsy Cline - Walking After Midnight
TTITLE3=Kathy Matthea - Ball And Chain
TTITLE4=Lynn Anderson - Rose Garden
TTITLE5=Tammy Wynette - Divorce
TTITLE6=Dottie West - Leavin´ For Unbelievers
TTITLE7=Tanya Tucker - Delta Dawn
TTITLE8=Sylvia - Nobody
TTITLE9=Foster Sisters - Just In Case
TTITLE10=Pattie Loveless - Lonely Days, Lonely Nights
TTITLE11=Dave and Sugar - The Door Is Always Open
TTITLE12=Lorrie Morgan - Please Mr. Please
TTITLE13=Sweethearts Of The Rodeo - Chains Of Gold
TTITLE14=Connie Smith - Once A Day
EXTD=
EXTT0=
EXTT1=
EXTT2=
EXTT3=
EXTT4=
EXTT5=
EXTT6=
EXTT7=
EXTT8=
EXTT9=
EXTT10=
EXTT11=
EXTT12=
EXTT13=
EXTT14=
PLAYORDER=
